<svg xmlns="http://www.w3.org/2000/svg" width="429" height="428" viewBox="265.5 66 429 428"><g fill="#FFF"><path d="M303.513 279.556h-35.069l.025-3.181 35.064.518zm.179-7.99l-35.033-1.583c.099-2.125.219-4.241.378-6.342l34.969 2.574a183.89 183.89 0 0 0-.314 5.351zm.791-10.632l-34.874-3.684c.224-2.11.478-4.216.756-6.312l34.755 4.669a219.233 219.233 0 0 0-.637 5.327zm1.424-10.563l-34.585-5.774c.348-2.101.727-4.186 1.14-6.267l34.407 6.78a179.75 179.75 0 0 0-.962 5.261zm2.076-10.468l-34.182-7.83c.478-2.091.99-4.171 1.533-6.237l33.914 8.925a148.242 148.242 0 0 0-1.265 5.142zm2.693-10.304l-33.645-9.891a187.469 187.469 0 0 1 1.917-6.147l33.311 10.966a156.203 156.203 0 0 0-1.583 5.072zm3.325-10.135l-32.973-11.941a191.3 191.3 0 0 1 2.29-6.023l32.565 13.007a152.421 152.421 0 0 0-1.882 4.957zm3.933-9.916l-32.171-13.943a197.77 197.77 0 0 1 2.623-5.819l31.753 14.878a195.793 195.793 0 0 0-2.205 4.884zm4.544-9.682l-31.285-15.844a198.612 198.612 0 0 1 2.997-5.689l30.758 16.84a191.715 191.715 0 0 0-2.47 4.693zm5.107-9.358l-30.255-17.731a203 203 0 0 1 3.32-5.471l29.702 18.642a180.093 180.093 0 0 0-2.767 4.56zm5.675-9.05l-29.14-19.508a220.912 220.912 0 0 1 3.629-5.251l28.547 20.364a217.604 217.604 0 0 0-3.036 4.395zm6.198-8.666l-27.896-21.246a188.355 188.355 0 0 1 3.933-5.012l27.273 22.042a169.842 169.842 0 0 0-3.31 4.216zm6.709-8.292l-26.566-22.888a228.214 228.214 0 0 1 4.226-4.769l25.899 23.645a169.509 169.509 0 0 0-3.559 4.012zm7.198-7.871l-25.153-24.436a204.243 204.243 0 0 1 4.515-4.51l24.411 25.178a161.494 161.494 0 0 0-3.773 3.768zm7.651-7.426l-23.645-25.904a192.42 192.42 0 0 1 4.779-4.231l22.853 26.596a187.315 187.315 0 0 0-3.987 3.539zm8.094-6.954l-22.071-27.253a192.187 192.187 0 0 1 5.038-3.947l21.21 27.92a164.933 164.933 0 0 0-4.177 3.28zm8.472-6.441l-20.374-28.538a205.067 205.067 0 0 1 5.247-3.628l19.508 29.14c-1.474.98-2.937 1.995-4.381 3.026zm8.861-5.929l-18.657-29.697a189.297 189.297 0 0 1 5.47-3.315l17.716 30.26a162.862 162.862 0 0 0-4.529 2.752zm9.164-5.366l-16.8-30.782a203.575 203.575 0 0 1 5.655-2.972l15.844 31.286a147.83 147.83 0 0 0-4.699 2.468zm9.488-4.814l-14.914-31.738a203.036 203.036 0 0 1 5.824-2.628l13.913 32.191c-1.623.697-3.23 1.424-4.823 2.175zm9.741-4.221l-12.967-32.58a192.439 192.439 0 0 1 5.963-2.265l11.962 32.963c-1.668.603-3.315 1.23-4.958 1.882zm9.98-3.614L413.88 78.543a195.981 195.981 0 0 1 6.104-1.896l9.92 33.635c-1.713.502-3.405 1.03-5.088 1.582zm10.215-3.021l-8.896-33.924c2.056-.537 4.116-1.05 6.202-1.528l7.865 34.172c-1.731.404-3.459.832-5.171 1.28zm10.378-2.389l-6.824-34.396a215.76 215.76 0 0 1 6.267-1.15l5.819 34.585c-1.762.294-3.515.612-5.262.961zm10.509-1.763l-4.729-34.745c2.096-.289 4.201-.538 6.312-.767l3.733 34.87c-1.782.189-3.549.403-5.316.642zm10.598-1.12l-2.624-34.969a203.16 203.16 0 0 1 6.332-.383l1.638 35.028c-1.793.086-3.575.195-5.346.324zm10.816-.483l-.513-35.063L480 68v35.068zm162.415 315.169L613.26 395.27l1.762-2.052 26.771 22.649zm-161.116 72.849c-2.105-.01-4.206-.06-6.297-.13l1.25-35.043c1.747.064 3.499.1 5.251.104l-.204 35.069zm6.242-.054l-.727-35.054c1.742-.045 3.465-.104 5.197-.199l1.871 35.019c-2.105.114-4.226.194-6.341.234zm-18.815-.399a203.708 203.708 0 0 1-6.282-.503l3.33-34.909c1.737.164 3.479.309 5.231.423l-2.279 34.989zm31.424-.263l-2.897-34.944a180.4 180.4 0 0 0 5.271-.513l3.853 34.854a198.8 198.8 0 0 1-6.227.603zm-43.954-.921a200.42 200.42 0 0 1-6.252-.881l5.415-34.646c1.723.269 3.45.518 5.188.727l-4.351 34.8zm56.458-.468l-4.978-34.721c1.757-.248 3.479-.518 5.211-.811l5.949 34.551c-2.051.358-4.111.687-6.182.981zm-68.912-1.469a269.057 269.057 0 0 1-6.094-1.22l7.298-34.307c1.737.368 3.479.727 5.227 1.05l-6.431 34.477zm81.277-.662l-6.974-34.371c1.707-.344 3.41-.717 5.098-1.115l8.034 34.128c-2.041.487-4.097.935-6.158 1.358zm-93.587-2.016a203.922 203.922 0 0 1-6.068-1.604l9.483-33.764c1.688.473 3.385.926 5.092 1.349l-8.507 34.019zm105.842-.861l-9.04-33.884a168.01 168.01 0 0 0 5.062-1.434l10.021 33.609c-2.01.599-4.017 1.166-6.043 1.709zm-117.933-2.529a192 192 0 0 1-6.038-1.99l11.523-33.112c1.647.567 3.301 1.114 4.968 1.638l-10.453 33.464zm129.95-1.065l-10.996-33.297a165 165 0 0 0 4.947-1.723l11.997 32.953a222.765 222.765 0 0 1-5.948 2.067zm-141.922-3.091a195.393 195.393 0 0 1-5.869-2.345l13.505-32.36c1.613.677 3.246 1.324 4.884 1.956l-12.52 32.749zm153.764-1.235l-13.002-32.564a217.82 217.82 0 0 0 4.854-2.021l13.952 32.172c-1.921.83-3.863 1.642-5.804 2.413zm-165.402-3.589a193.193 193.193 0 0 1-5.729-2.698l15.391-31.504c1.568.762 3.151 1.508 4.744 2.225l-14.406 31.977zm176.965-1.433l-14.979-31.714a186.066 186.066 0 0 0 4.749-2.314l15.844 31.275a222.621 222.621 0 0 1-5.614 2.753zm-188.299-4.102a200.833 200.833 0 0 1-5.56-3.031l17.243-30.534c1.518.856 3.051 1.692 4.599 2.504l-16.282 31.061zm199.474-1.578l-16.755-30.808a165.029 165.029 0 0 0 4.555-2.578l17.69 30.284a235.34 235.34 0 0 1-5.49 3.102zm-210.485-4.644a202.2 202.2 0 0 1-5.331-3.335l19.02-29.463c1.479.95 2.972 1.886 4.475 2.797l-18.164 30.001zm221.377-1.722l-18.607-29.728a163.812 163.812 0 0 0 4.416-2.853l19.473 29.165a201.42 201.42 0 0 1-5.282 3.416zm-231.975-5.117a231.416 231.416 0 0 1-5.087-3.619l20.678-28.318a192.121 192.121 0 0 0 4.341 3.081l-19.932 28.856zm242.428-1.872l-20.329-28.572a206.593 206.593 0 0 0 4.256-3.121l21.116 27.99a231.33 231.33 0 0 1-5.043 3.703zm-252.583-5.576a222.268 222.268 0 0 1-4.908-3.947l22.41-26.975a164.181 164.181 0 0 0 4.102 3.296l-21.604 27.626zm262.598-2.01l-21.952-27.343a190.37 190.37 0 0 0 4.027-3.335l22.793 26.646a239.29 239.29 0 0 1-4.868 4.032zm-272.279-6.014a241.704 241.704 0 0 1-4.619-4.181l23.868-25.695a199.432 199.432 0 0 0 3.938 3.563l-23.187 26.313zm281.866-2.18l-23.569-25.959a156.32 156.32 0 0 0 3.838-3.6l24.326 25.263a236.161 236.161 0 0 1-4.595 4.296zm-291.046-6.391a232.606 232.606 0 0 1-4.425-4.52l25.436-24.147a149.89 149.89 0 0 0 3.654 3.733l-24.665 24.934zm300.106-2.324l-25.058-24.536a201.589 201.589 0 0 0 3.628-3.817l25.766 23.788a240.294 240.294 0 0 1-4.336 4.565zm-308.781-6.8a208.791 208.791 0 0 1-4.137-4.759l26.81-22.6a173.507 173.507 0 0 0 3.44 3.947l-26.113 23.412zm-8.129-9.613a218.602 218.602 0 0 1-3.828-4.973l28.085-21.007c1.05 1.404 2.12 2.798 3.215 4.177L314.3 411.108zm-7.507-10.054a189.272 189.272 0 0 1-3.554-5.223l29.299-19.269a176.271 176.271 0 0 0 2.937 4.306l-28.682 20.186zm-6.929-10.509a208.52 208.52 0 0 1-3.216-5.396l30.379-17.527a170.845 170.845 0 0 0 2.688 4.505l-29.851 18.418zm-6.282-10.892a221.755 221.755 0 0 1-2.887-5.569l31.365-15.681a198.97 198.97 0 0 0 2.414 4.659l-30.892 16.591zm-5.624-11.239a226.233 226.233 0 0 1-2.544-5.704l32.231-13.818a190.7 190.7 0 0 0 2.14 4.809l-31.827 14.713zm-4.929-11.523a198.437 198.437 0 0 1-2.21-5.884l32.998-11.883a187.528 187.528 0 0 0 1.852 4.929l-32.64 12.838zm-4.256-11.863a245.207 245.207 0 0 1-1.857-6.003l33.655-9.861c.493 1.683 1.011 3.36 1.553 5.022l-33.351 10.842zm-3.539-12.095a205.585 205.585 0 0 1-1.483-6.093l34.177-7.845c.398 1.722.816 3.43 1.254 5.131l-33.948 8.807zm-2.797-12.271a197.845 197.845 0 0 1-1.125-6.183l34.591-5.764c.293 1.727.602 3.454.936 5.166l-34.402 6.781zm-2.066-12.43a195.081 195.081 0 0 1-.752-6.241l34.875-3.68c.184 1.758.398 3.494.627 5.232l-34.75 4.689zm-1.314-12.499a201.003 201.003 0 0 1-.383-6.281l35.029-1.608c.084 1.747.189 3.484.318 5.227l-34.964 2.662zm-.588-12.997l-.025-3.18h35.069l.02 2.668z"/><path d="M641.812 415.848l-26.815-22.604c26.761-31.743 41.49-72.107 41.49-113.688 0-97.315-79.172-176.487-176.487-176.487V68c116.654 0 211.556 94.906 211.556 211.556 0 49.838-17.666 98.231-49.744 136.292z"/></g><path fill="#FFF" d="M271.278 314.119l34.603-5.717c6.766 40.964 27.9 78.375 59.522 105.373 74.011 63.188 185.63 54.382 248.818-19.629l26.67 22.77c-75.744 88.719-209.543 99.271-298.258 23.529-37.902-32.359-63.237-77.217-71.355-126.326z"/><path fill="#FFF" d="M379.554 93.354l16.639 30.873c-36.549 19.696-65.074 51.83-80.345 90.504-35.741 90.514 8.819 193.23 99.334 228.973l-12.88 32.617C293.8 433.478 240.388 310.349 283.23 201.852c18.304-46.354 52.51-84.878 96.324-108.498z"/></svg>